<?xml version="1.0" encoding="utf-8"?>
<!-- Generator: Adobe Illustrator 18.0.0, SVG Export Plug-In . SVG Version: 6.00 Build 0)  -->
<!DOCTYPE svg PUBLIC "-//W3C//DTD SVG 1.1//EN" "http://www.w3.org/Graphics/SVG/1.1/DTD/svg11.dtd">
<svg version="1.1" id="Layer_1" xmlns="http://www.w3.org/2000/svg" xmlns:xlink="http://www.w3.org/1999/xlink" x="0px" y="0px"
	 viewBox="0 0 48 48" enable-background="new 0 0 48 48" xml:space="preserve">
<g>
	<path fill="#FFC107" d="M24.6,0.5C14.5,0.5,3,6.3,3,22.8c0,11.9,9,24.7,22.7,24.7c0,0,0.2,0,0.2,0C31,47.4,36.6,44,36.6,37
		c0-1.4-0.5-2.5-0.9-3.6c-0.1-0.3-0.2-0.5-0.3-0.8c-1-2.6,0.1-3.5,2.7-5.4c3-2.1,7.1-5,7-12.7C45,10,40,0.5,24.6,0.5z M25.3,41.8
		c-2.6,0-4.7-2.1-4.7-4.7c0-2.6,2.1-4.7,4.7-4.7c2.6,0,4.7,2.1,4.7,4.7C30,39.8,27.9,41.8,25.3,41.8z"/>
	<circle fill="#9C27B0" cx="36.2" cy="15.2" r="4.1"/>
	<circle fill="#2196F3" cx="25.6" cy="8.2" r="4.1"/>
	<circle fill="#4CAF50" cx="13.9" cy="14" r="4.1"/>
	<circle fill="#FF3D00" cx="12.7" cy="26.9" r="4.1"/>
</g>
</svg>
